<?xml version="1.0" standalone="no"?><!DOCTYPE svg PUBLIC "-//W3C//DTD SVG 1.1//EN" "http://www.w3.org/Graphics/SVG/1.1/DTD/svg11.dtd"><svg width="900" height="600" version="1.1" xmlns="http://www.w3.org/2000/svg" xmlns:xlink="http://www.w3.org/1999/xlink"><defs xmlns="http://www.w3.org/1999/xhtml"><style type="text/css"><![CDATA[]]></style></defs><g transform="translate(75,50)"><g transform="translate(0,500)" fill="none" font-size="10" font-family="sans-serif" text-anchor="middle"><path class="domain" stroke="#000" d="M0.5,0V0.5H750.5V0"/><g class="tick" opacity="1" transform="translate(42.166666666666686,0)"><line stroke="#000" y2="0"/><text fill="#000" y="3" dy="0.71em" transform="translate(0,10)">2003</text></g><g class="tick" opacity="1" transform="translate(125.50000000000001,0)"><line stroke="#000" y2="0"/><text fill="#000" y="3" dy="0.71em" transform="translate(0,10)">2005</text></g><g class="tick" opacity="1" transform="translate(208.83333333333334,0)"><line stroke="#000" y2="0"/><text fill="#000" y="3" dy="0.71em" transform="translate(0,10)">2007</text></g><g class="tick" opacity="1" transform="translate(292.1666666666667,0)"><line stroke="#000" y2="0"/><text fill="#000" y="3" dy="0.71em" transform="translate(0,10)">2009</text></g><g class="tick" opacity="1" transform="translate(375.5,0)"><line stroke="#000" y2="0"/><text fill="#000" y="3" dy="0.71em" transform="translate(0,10)">2011</text></g><g class="tick" opacity="1" transform="translate(458.8333333333333,0)"><line stroke="#000" y2="0"/><text fill="#000" y="3" dy="0.71em" transform="translate(0,10)">2013</text></g><g class="tick" opacity="1" transform="translate(542.1666666666667,0)"><line stroke="#000" y2="0"/><text fill="#000" y="3" dy="0.71em" transform="translate(0,10)">2015</text></g><g class="tick" opacity="1" transform="translate(625.5,0)"><line stroke="#000" y2="0"/><text fill="#000" y="3" dy="0.71em" transform="translate(0,10)">2017</text></g><g class="tick" opacity="1" transform="translate(708.8333333333333,0)"><line stroke="#000" y2="0"/><text fill="#000" y="3" dy="0.71em" transform="translate(0,10)">2019</text></g></g><text y="-75" x="-250" dy="1em" transform="rotate(-90)" style="text-anchor: middle; font-weight: bold;">% of females in parlament</text><text y="533" x="375" dy="1em" style="text-anchor: middle; font-weight: bold;">Year</text><text y="-25" x="375" dy="1em" style="text-anchor: middle; font-weight: bold;">Percentage of female representatives in parlaments in EU</text><g fill="none" font-size="10" font-family="sans-serif" text-anchor="end" style="opacity: 0.3;"><path class="domain" stroke="#000" d="M750,500.5H0.5V0.5H750"/><g class="tick" opacity="1" transform="translate(0,500.5)"><line stroke="#000" x2="750"/><text fill="#000" x="-3" dy="0.32em"/></g><g class="tick" opacity="1" transform="translate(0,450.5)"><line stroke="#000" x2="750"/><text fill="#000" x="-3" dy="0.32em"/></g><g class="tick" opacity="1" transform="translate(0,400.5)"><line stroke="#000" x2="750"/><text fill="#000" x="-3" dy="0.32em"/></g><g class="tick" opacity="1" transform="translate(0,350.5)"><line stroke="#000" x2="750"/><text fill="#000" x="-3" dy="0.32em"/></g><g class="tick" opacity="1" transform="translate(0,300.5)"><line stroke="#000" x2="750"/><text fill="#000" x="-3" dy="0.32em"/></g><g class="tick" opacity="1" transform="translate(0,250.5)"><line stroke="#000" x2="750"/><text fill="#000" x="-3" dy="0.32em"/></g><g class="tick" opacity="1" transform="translate(0,200.5)"><line stroke="#000" x2="750"/><text fill="#000" x="-3" dy="0.32em"/></g><g class="tick" opacity="1" transform="translate(0,150.5)"><line stroke="#000" x2="750"/><text fill="#000" x="-3" dy="0.32em"/></g><g class="tick" opacity="1" transform="translate(0,100.5)"><line stroke="#000" x2="750"/><text fill="#000" x="-3" dy="0.32em"/></g><g class="tick" opacity="1" transform="translate(0,50.5)"><line stroke="#000" x2="750"/><text fill="#000" x="-3" dy="0.32em"/></g><g class="tick" opacity="1" transform="translate(0,0.5)"><line stroke="#000" x2="750"/><text fill="#000" x="-3" dy="0.32em"/></g></g><g fill="none" font-size="10" font-family="sans-serif" text-anchor="end"><path class="domain" stroke="#000" d="M0,500.5H0.5V0.5H0"/><g class="tick" opacity="1" transform="translate(0,500.5)"><line stroke="#000" x2="0"/><text fill="#000" x="-3" dy="0.32em">0%</text></g><g class="tick" opacity="1" transform="translate(0,450.5)"><line stroke="#000" x2="0"/><text fill="#000" x="-3" dy="0.32em">5%</text></g><g class="tick" opacity="1" transform="translate(0,400.5)"><line stroke="#000" x2="0"/><text fill="#000" x="-3" dy="0.32em">10%</text></g><g class="tick" opacity="1" transform="translate(0,350.5)"><line stroke="#000" x2="0"/><text fill="#000" x="-3" dy="0.32em">15%</text></g><g class="tick" opacity="1" transform="translate(0,300.5)"><line stroke="#000" x2="0"/><text fill="#000" x="-3" dy="0.32em">20%</text></g><g class="tick" opacity="1" transform="translate(0,250.5)"><line stroke="#000" x2="0"/><text fill="#000" x="-3" dy="0.32em">25%</text></g><g class="tick" opacity="1" transform="translate(0,200.5)"><line stroke="#000" x2="0"/><text fill="#000" x="-3" dy="0.32em">30%</text></g><g class="tick" opacity="1" transform="translate(0,150.5)"><line stroke="#000" x2="0"/><text fill="#000" x="-3" dy="0.32em">35%</text></g><g class="tick" opacity="1" transform="translate(0,100.5)"><line stroke="#000" x2="0"/><text fill="#000" x="-3" dy="0.32em">40%</text></g><g class="tick" opacity="1" transform="translate(0,50.5)"><line stroke="#000" x2="0"/><text fill="#000" x="-3" dy="0.32em">45%</text></g><g class="tick" opacity="1" transform="translate(0,0.5)"><line stroke="#000" x2="0"/><text fill="#000" x="-3" dy="0.32em">50%</text></g></g><line x1="41.666666666666686" y1="410" x2="41.666666666666686" y2="377" stroke="black" style="width: 50px; opacity: 0.75;"/><line x1="41.666666666666686" y1="161.74999999999994" x2="41.666666666666686" y2="50" stroke="black" style="width: 50px; opacity: 0.75;"/><line x1="26.666666666666686" y1="410" x2="56.666666666666686" y2="410" stroke="black" style="width: 50px; opacity: 0.75;"/><line x1="26.666666666666686" y1="50" x2="56.666666666666686" y2="50" stroke="black" style="width: 50px; opacity: 0.75;"/><rect x="26.666666666666686" y="161.74999999999994" height="215.25000000000006" width="30" stroke="black" fill="#69b3a2" style="opacity: 0.5;"/><line x1="125.00000000000001" y1="456" x2="125.00000000000001" y2="353" stroke="black" style="width: 50px; opacity: 0.75;"/><line x1="125.00000000000001" y1="190" x2="125.00000000000001" y2="11" stroke="black" style="width: 50px; opacity: 0.75;"/><line x1="110.00000000000001" y1="456" x2="140" y2="456" stroke="black" style="width: 50px; opacity: 0.75;"/><line x1="110.00000000000001" y1="11" x2="140" y2="11" stroke="black" style="width: 50px; opacity: 0.75;"/><rect x="110.00000000000001" y="190" height="163" width="30" stroke="black" fill="#69b3a2" style="opacity: 0.5;"/><line x1="208.33333333333334" y1="409" x2="208.33333333333334" y2="338.25" stroke="black" style="width: 50px; opacity: 0.75;"/><line x1="208.33333333333334" y1="191.25000000000006" x2="208.33333333333334" y2="27" stroke="black" style="width: 50px; opacity: 0.75;"/><line x1="193.33333333333334" y1="409" x2="223.33333333333334" y2="409" stroke="black" style="width: 50px; opacity: 0.75;"/><line x1="193.33333333333334" y1="27" x2="223.33333333333334" y2="27" stroke="black" style="width: 50px; opacity: 0.75;"/><rect x="193.33333333333334" y="191.25000000000006" height="146.99999999999994" width="30" stroke="black" fill="#69b3a2" style="opacity: 0.5;"/><line x1="291.6666666666667" y1="413" x2="291.6666666666667" y2="321" stroke="black" style="width: 50px; opacity: 0.75;"/><line x1="291.6666666666667" y1="183.25" x2="291.6666666666667" y2="36.00000000000006" stroke="black" style="width: 50px; opacity: 0.75;"/><line x1="276.6666666666667" y1="413" x2="306.6666666666667" y2="413" stroke="black" style="width: 50px; opacity: 0.75;"/><line x1="276.6666666666667" y1="36.00000000000006" x2="306.6666666666667" y2="36.00000000000006" stroke="black" style="width: 50px; opacity: 0.75;"/><rect x="276.6666666666667" y="183.25" height="137.75" width="30" stroke="black" fill="#69b3a2" style="opacity: 0.5;"/><line x1="375" y1="413" x2="375" y2="309.25" stroke="black" style="width: 50px; opacity: 0.75;"/><line x1="375" y1="200.75" x2="375" y2="50" stroke="black" style="width: 50px; opacity: 0.75;"/><line x1="360" y1="413" x2="390" y2="413" stroke="black" style="width: 50px; opacity: 0.75;"/><line x1="360" y1="50" x2="390" y2="50" stroke="black" style="width: 50px; opacity: 0.75;"/><rect x="360" y="200.75" height="108.5" width="30" stroke="black" fill="#69b3a2" style="opacity: 0.5;"/><line x1="458.3333333333333" y1="406" x2="458.3333333333333" y2="300.25" stroke="black" style="width: 50px; opacity: 0.75;"/><line x1="458.3333333333333" y1="154.99999999999994" x2="458.3333333333333" y2="56" stroke="black" style="width: 50px; opacity: 0.75;"/><line x1="443.3333333333333" y1="406" x2="473.3333333333333" y2="406" stroke="black" style="width: 50px; opacity: 0.75;"/><line x1="443.3333333333333" y1="56" x2="473.3333333333333" y2="56" stroke="black" style="width: 50px; opacity: 0.75;"/><rect x="443.3333333333333" y="154.99999999999994" height="145.25000000000006" width="30" stroke="black" fill="#69b3a2" style="opacity: 0.5;"/><line x1="541.6666666666667" y1="399" x2="541.6666666666667" y2="303" stroke="black" style="width: 50px; opacity: 0.75;"/><line x1="541.6666666666667" y1="157" x2="541.6666666666667" y2="40" stroke="black" style="width: 50px; opacity: 0.75;"/><line x1="526.6666666666667" y1="399" x2="556.6666666666667" y2="399" stroke="black" style="width: 50px; opacity: 0.75;"/><line x1="526.6666666666667" y1="40" x2="556.6666666666667" y2="40" stroke="black" style="width: 50px; opacity: 0.75;"/><rect x="526.6666666666667" y="157" height="146" width="30" stroke="black" fill="#69b3a2" style="opacity: 0.5;"/><line x1="625" y1="399" x2="625" y2="294" stroke="black" style="width: 50px; opacity: 0.75;"/><line x1="625" y1="137" x2="625" y2="39" stroke="black" style="width: 50px; opacity: 0.75;"/><line x1="610" y1="399" x2="640" y2="399" stroke="black" style="width: 50px; opacity: 0.75;"/><line x1="610" y1="39" x2="640" y2="39" stroke="black" style="width: 50px; opacity: 0.75;"/><rect x="610" y="137" height="157" width="30" stroke="black" fill="#69b3a2" style="opacity: 0.5;"/><line x1="708.3333333333333" y1="380" x2="708.3333333333333" y2="284.5" stroke="black" style="width: 50px; opacity: 0.75;"/><line x1="708.3333333333333" y1="122.75" x2="708.3333333333333" y2="23.999999999999943" stroke="black" style="width: 50px; opacity: 0.75;"/><line x1="693.3333333333333" y1="380" x2="723.3333333333333" y2="380" stroke="black" style="width: 50px; opacity: 0.75;"/><line x1="693.3333333333333" y1="23.999999999999943" x2="723.3333333333333" y2="23.999999999999943" stroke="black" style="width: 50px; opacity: 0.75;"/><rect x="693.3333333333333" y="122.75" height="161.75" width="30" stroke="black" fill="#69b3a2" style="opacity: 0.5;"/><text transform="translate(728.3333333333333,217.52500000000003)" stroke="steelblue">Mean</text><path fill="none" stroke="steelblue" stroke-width="3" d="M41.666666666666686,272.3928571428571L125.00000000000001,274.33333333333337L208.33333333333334,266.49999999999994L291.6666666666667,256.88888888888886L375,254.11111111111106L458.3333333333333,231.3611111111111L541.6666666666667,228.40540540540542L625,220.75675675675677L708.3333333333333,202.52500000000003L733.3333333333333,202.52500000000003"/></g></svg>