<?xml version="1.0" standalone="no"?><!DOCTYPE svg PUBLIC "-//W3C//DTD SVG 1.1//EN" "http://www.w3.org/Graphics/SVG/1.1/DTD/svg11.dtd"><svg width="460" height="400" version="1.1" xmlns="http://www.w3.org/2000/svg" xmlns:xlink="http://www.w3.org/1999/xlink"><defs xmlns="http://www.w3.org/1999/xhtml"><style type="text/css"><![CDATA[]]></style></defs><g transform="translate(75,50)"><g transform="translate(0,300)" fill="none" font-size="10" font-family="sans-serif" text-anchor="middle"><path class="domain" stroke="#000" d="M0.5,6V0.5H355.5V6"/><g class="tick" opacity="1" transform="translate(34.35483870967744,0)"><line stroke="#000" y2="6"/><text fill="#000" y="9" dy="0.71em" transform="translate(-10,0)rotate(-45)" style="text-anchor: end;">Week 53</text></g><g class="tick" opacity="1" transform="translate(91.61290322580646,0)"><line stroke="#000" y2="6"/><text fill="#000" y="9" dy="0.71em" transform="translate(-10,0)rotate(-45)" style="text-anchor: end;">Week 1</text></g><g class="tick" opacity="1" transform="translate(148.8709677419355,0)"><line stroke="#000" y2="6"/><text fill="#000" y="9" dy="0.71em" transform="translate(-10,0)rotate(-45)" style="text-anchor: end;">Week 2</text></g><g class="tick" opacity="1" transform="translate(206.12903225806454,0)"><line stroke="#000" y2="6"/><text fill="#000" y="9" dy="0.71em" transform="translate(-10,0)rotate(-45)" style="text-anchor: end;">Week 3</text></g><g class="tick" opacity="1" transform="translate(263.38709677419354,0)"><line stroke="#000" y2="6"/><text fill="#000" y="9" dy="0.71em" transform="translate(-10,0)rotate(-45)" style="text-anchor: end;">Week 4</text></g><g class="tick" opacity="1" transform="translate(320.64516129032256,0)"><line stroke="#000" y2="6"/><text fill="#000" y="9" dy="0.71em" transform="translate(-10,0)rotate(-45)" style="text-anchor: end;">Week 5</text></g></g><text y="-75" x="-150" dy="1em" transform="rotate(-90)" style="text-anchor: middle; font-weight: bold;"># Vaccinations</text><g fill="none" font-size="10" font-family="sans-serif" text-anchor="end"><path class="domain" stroke="#000" d="M-6,300.5H0.5V0.5H-6"/><g class="tick" opacity="1" transform="translate(0,300.5)"><line stroke="#000" x2="-6"/><text fill="#000" x="-9" dy="0.32em">0</text></g><g class="tick" opacity="1" transform="translate(0,270.5)"><line stroke="#000" x2="-6"/><text fill="#000" x="-9" dy="0.32em">10,000</text></g><g class="tick" opacity="1" transform="translate(0,240.5)"><line stroke="#000" x2="-6"/><text fill="#000" x="-9" dy="0.32em">20,000</text></g><g class="tick" opacity="1" transform="translate(0,210.5)"><line stroke="#000" x2="-6"/><text fill="#000" x="-9" dy="0.32em">30,000</text></g><g class="tick" opacity="1" transform="translate(0,180.5)"><line stroke="#000" x2="-6"/><text fill="#000" x="-9" dy="0.32em">40,000</text></g><g class="tick" opacity="1" transform="translate(0,150.5)"><line stroke="#000" x2="-6"/><text fill="#000" x="-9" dy="0.32em">50,000</text></g><g class="tick" opacity="1" transform="translate(0,120.5)"><line stroke="#000" x2="-6"/><text fill="#000" x="-9" dy="0.32em">60,000</text></g><g class="tick" opacity="1" transform="translate(0,90.5)"><line stroke="#000" x2="-6"/><text fill="#000" x="-9" dy="0.32em">70,000</text></g><g class="tick" opacity="1" transform="translate(0,60.5)"><line stroke="#000" x2="-6"/><text fill="#000" x="-9" dy="0.32em">80,000</text></g><g class="tick" opacity="1" transform="translate(0,30.5)"><line stroke="#000" x2="-6"/><text fill="#000" x="-9" dy="0.32em">90,000</text></g><g class="tick" opacity="1" transform="translate(0,0.5)"><line stroke="#000" x2="-6"/><text fill="#000" x="-9" dy="0.32em">100,000</text></g></g><rect x="11.451612903225822" y="117.207" width="45.80645161290323" height="182.793" fill="#69b3a2"/><rect x="68.70967741935485" y="106.22399999999999" width="45.80645161290323" height="193.776" fill="#69b3a2"/><rect x="125.96774193548389" y="135.795" width="45.80645161290323" height="164.205" fill="#69b3a2"/><rect x="183.22580645161293" y="181.89600000000002" width="45.80645161290323" height="118.10399999999998" fill="#69b3a2"/><rect x="240.48387096774195" y="105.00300000000001" width="45.80645161290323" height="194.99699999999999" fill="#69b3a2"/><rect x="297.741935483871" y="114.102" width="45.80645161290323" height="185.898" fill="#69b3a2"/></g></svg>